<svg width="791" height="284" viewBox="0 0 791 284" fill="none" xmlns="http://www.w3.org/2000/svg">
<rect width="791" height="284" rx="142" fill="white"/>
<path d="M258.098 125.262C259.084 104.707 244.778 91.0711 228.634 81.7094L218.14 143.578C225.405 143.171 228.957 145.939 230.248 147.241C231.863 148.869 235.899 153.754 231.055 161.487C241.146 159.859 256.906 150.09 258.098 125.262Z" fill="url(#paint0_linear)"/>
<path fill-rule="evenodd" clip-rule="evenodd" d="M120.44 53.2307L107.928 40.6127C126.763 38.3062 176.462 41.264 224.573 71.547C225.38 74.8032 224.573 79.6876 224.573 79.6876L228.609 81.7227C232.107 86.7428 238.054 101.016 233.856 117.948C229.659 134.881 222.421 142.099 219.326 143.591C212.868 143.591 201.89 147.336 198.338 163.943C194.786 180.55 187.979 184.159 185.019 183.887L113.982 184.701L67.1627 157.023L60.3013 99.632L73.6206 81.7227L97.434 62.1853L114.386 55.2658L120.44 53.2307ZM204.338 76.9383C201.205 80.2126 198.276 81.7836 197.44 82.2096C179.149 78.305 172.559 68.8087 172.559 68.8087C189.812 68.7019 205.385 72.8201 216.778 79.7866C216.778 79.7866 210.61 77.7809 204.338 76.9383Z" fill="url(#paint1_linear)"/>
<path fill-rule="evenodd" clip-rule="evenodd" d="M197.713 163.948C185.174 170.123 170.308 173.698 154.368 173.698C109.563 173.698 73.2411 145.452 73.2411 110.609C73.2411 84.8701 93.0608 62.7314 121.479 52.9189C67.4317 56.0437 24 99.6158 24 153.379C24 215.428 79.1151 266.698 147.103 266.698C197.871 266.698 240.131 237.159 262.227 197.638C231.823 204.5 195.832 191.454 197.713 163.948Z" fill="url(#paint2_linear)"/>
<path fill-rule="evenodd" clip-rule="evenodd" d="M318.635 71.472C317.688 71.3173 316.663 71.24 315.561 71.24H299.06V113H304.222V97.572H315.561C316.663 97.572 317.688 97.4947 318.635 97.34C320.82 96.992 322.685 96.2283 324.232 95.049C325.798 93.8503 326.977 92.3423 327.77 90.525C328.563 88.6883 328.959 86.6487 328.959 84.406C328.959 82.1633 328.563 80.1333 327.77 78.316C326.977 76.4793 325.808 74.9713 324.261 73.792C322.714 72.5933 320.839 71.82 318.635 71.472ZM317.997 92.41C317.243 92.584 316.373 92.671 315.387 92.671H304.222V76.141H315.387C316.373 76.141 317.243 76.228 317.997 76.402C319.872 76.8273 321.284 77.794 322.231 79.302C323.198 80.81 323.681 82.5113 323.681 84.406C323.681 86.3007 323.198 88.002 322.231 89.51C321.284 91.018 319.872 91.9847 317.997 92.41ZM339.767 111.782C342.049 113.174 344.726 113.87 347.8 113.87C350.855 113.87 353.523 113.184 355.804 111.811C358.086 110.419 359.835 108.476 361.053 105.982C362.291 103.469 362.909 100.578 362.909 97.311C362.909 94.0823 362.3 91.221 361.082 88.727C359.864 86.233 358.115 84.29 355.833 82.898C353.552 81.506 350.874 80.81 347.8 80.81C344.784 80.81 342.136 81.506 339.854 82.898C337.573 84.2707 335.814 86.204 334.576 88.698C333.339 91.192 332.72 94.063 332.72 97.311C332.72 100.54 333.329 103.411 334.547 105.924C335.765 108.418 337.505 110.371 339.767 111.782ZM354.963 105.837C353.339 107.925 350.952 108.969 347.8 108.969C344.707 108.969 342.329 107.935 340.666 105.866C339.023 103.778 338.201 100.926 338.201 97.311C338.201 93.7537 339.004 90.931 340.608 88.843C342.232 86.755 344.63 85.711 347.8 85.711C350.932 85.711 353.32 86.7453 354.963 88.814C356.607 90.8633 357.428 93.6957 357.428 97.311C357.428 100.888 356.607 103.73 354.963 105.837ZM365.262 81.651L370.395 81.68L377.384 104.59L384.431 81.68H388.984L396.002 104.59L403.02 81.68H408.124L398.554 113H394.262L386.693 89.191L379.124 113H374.832L365.262 81.651ZM418.782 106.33C417.158 104.571 416.24 102.057 416.027 98.79H440.039C440.058 98.5 440.068 98.0747 440.068 97.514C440.068 94.0727 439.488 91.105 438.328 88.611C437.168 86.0977 435.496 84.174 433.311 82.84C431.146 81.4867 428.565 80.81 425.568 80.81C422.552 80.81 419.903 81.4963 417.622 82.869C415.36 84.2223 413.601 86.1653 412.344 88.698C411.107 91.2113 410.488 94.1597 410.488 97.543C410.488 100.772 411.116 103.623 412.373 106.098C413.649 108.573 415.437 110.487 417.738 111.84C420.058 113.193 422.745 113.87 425.8 113.87C428.855 113.87 431.6 113.106 434.036 111.579C436.472 110.052 438.299 107.915 439.517 105.17L434.558 103.459C433.688 105.238 432.48 106.601 430.933 107.548C429.406 108.495 427.617 108.969 425.568 108.969C422.687 108.969 420.425 108.089 418.782 106.33ZM419.101 87.799C420.725 86.233 422.939 85.45 425.742 85.45C431.059 85.45 434.036 88.5143 434.674 94.643H416.114C416.481 91.6463 417.477 89.365 419.101 87.799ZM453.775 83.594C454.645 82.898 455.669 82.3663 456.849 81.999C458.028 81.6317 459.217 81.448 460.416 81.448C461.17 81.448 461.914 81.5253 462.649 81.68V86.523C461.837 86.3297 461.054 86.233 460.3 86.233C458.424 86.233 456.82 86.726 455.486 87.712C454.074 88.7173 453.088 90.0417 452.528 91.685C451.967 93.309 451.687 95.1747 451.687 97.282V113H446.496V81.68H451.107V86.639C451.841 85.363 452.731 84.348 453.775 83.594ZM474.12 106.33C472.496 104.571 471.578 102.057 471.365 98.79H495.377C495.396 98.5 495.406 98.0747 495.406 97.514C495.406 94.0727 494.826 91.105 493.666 88.611C492.506 86.0977 490.834 84.174 488.649 82.84C486.484 81.4867 483.903 80.81 480.906 80.81C477.89 80.81 475.241 81.4963 472.96 82.869C470.698 84.2223 468.939 86.1653 467.682 88.698C466.445 91.2113 465.826 94.1597 465.826 97.543C465.826 100.772 466.454 103.623 467.711 106.098C468.987 108.573 470.775 110.487 473.076 111.84C475.396 113.193 478.083 113.87 481.138 113.87C484.193 113.87 486.938 113.106 489.374 111.579C491.81 110.052 493.637 107.915 494.855 105.17L489.896 103.459C489.026 105.238 487.818 106.601 486.271 107.548C484.744 108.495 482.955 108.969 480.906 108.969C478.025 108.969 475.763 108.089 474.12 106.33ZM474.439 87.799C476.063 86.233 478.277 85.45 481.08 85.45C486.397 85.45 489.374 88.5143 490.012 94.643H471.452C471.819 91.6463 472.815 89.365 474.439 87.799ZM528.542 71.24V113H523.931V109.462C522.752 110.873 521.341 111.966 519.697 112.739C518.054 113.493 516.198 113.87 514.129 113.87C511.268 113.87 508.774 113.155 506.647 111.724C504.54 110.274 502.916 108.302 501.775 105.808C500.654 103.295 500.093 100.462 500.093 97.311C500.093 94.179 500.654 91.366 501.775 88.872C502.916 86.3587 504.54 84.3867 506.647 82.956C508.774 81.5253 511.258 80.81 514.1 80.81C516.014 80.81 517.745 81.129 519.291 81.767C520.857 82.405 522.211 83.3233 523.351 84.522V71.24H528.542ZM514.767 109.143C517.803 109.143 520.084 108.07 521.611 105.924C523.158 103.778 523.931 100.907 523.931 97.311C523.931 93.715 523.168 90.8537 521.64 88.727C520.113 86.6003 517.87 85.537 514.912 85.537C512.863 85.537 511.133 86.0493 509.721 87.074C508.329 88.0987 507.285 89.5003 506.589 91.279C505.913 93.0383 505.574 95.049 505.574 97.311C505.574 99.5923 505.913 101.622 506.589 103.401C507.285 105.18 508.32 106.581 509.692 107.606C511.084 108.631 512.776 109.143 514.767 109.143ZM570.116 82.956C568.008 81.5253 565.534 80.81 562.692 80.81C560.778 80.81 559.038 81.129 557.472 81.767C555.925 82.405 554.581 83.3233 553.441 84.522V71.24H548.25V113H552.861V109.462C554.04 110.873 555.451 111.966 557.095 112.739C558.738 113.493 560.594 113.87 562.663 113.87C565.524 113.87 568.008 113.155 570.116 111.724C572.242 110.274 573.866 108.302 574.988 105.808C576.128 103.295 576.699 100.462 576.699 97.311C576.699 94.179 576.128 91.366 574.988 88.872C573.866 86.3587 572.242 84.3867 570.116 82.956ZM567.071 107.606C565.698 108.631 564.016 109.143 562.025 109.143C558.989 109.143 556.698 108.07 555.152 105.924C553.624 103.778 552.861 100.907 552.861 97.311C552.861 93.715 553.624 90.8537 555.152 88.727C556.679 86.6003 558.922 85.537 561.88 85.537C563.929 85.537 565.65 86.0493 567.042 87.074C568.453 88.0987 569.497 89.5003 570.174 91.279C570.87 93.0383 571.218 95.049 571.218 97.311C571.218 99.5923 570.87 101.622 570.174 103.401C569.497 105.18 568.463 106.581 567.071 107.606ZM602.47 81.68H607.719L590.667 126.92H585.65L590.812 112.884L578.11 81.68H583.533L593.306 106.33L602.47 81.68ZM531.881 153C542.557 153 549.263 156.006 555.616 161.398L548.733 169.619C543.969 165.553 539.204 163.078 531.44 163.078C520.146 163.078 511.411 172.978 511.411 184.823L511.416 185.56C511.658 198.003 519.979 207.099 532.41 207.099C538.322 207.099 543.528 205.243 547.322 202.414V190.923L557.822 181.376V207.365C551.645 212.58 542.998 217 532.057 217C512.734 217 500.029 203.21 500.029 185.177L500.033 184.436C500.315 167.357 513.379 153 531.881 153ZM601.758 153C620.728 153 633.963 167.409 633.963 184.823L633.958 185.558C633.674 202.64 620.348 217 601.581 217C582.611 217 569.376 202.591 569.376 185.177L569.381 184.442C569.665 167.361 582.992 153 601.758 153ZM328.234 153.619L355.41 215.939L344.363 215.939L323.029 166.614L301.85 215.939L291 215.939L318.176 153.619H328.234ZM468.208 153.619L495.384 215.939L484.336 215.939L463.002 166.614L441.824 215.939L430.974 215.939L458.149 153.619H468.208ZM655.732 154.061L688.819 196.845V154.061H699.496V215.939H690.408L656.35 171.917V215.939H645.673V154.061H655.732ZM601.581 163.078C589.317 163.078 580.758 172.801 580.758 184.823L580.764 185.529C581.013 197.311 589.587 206.923 601.758 206.923C614.022 206.923 622.581 197.199 622.581 185.177L622.575 184.471C622.326 172.689 613.752 163.078 601.581 163.078ZM413.941 159.29C409.963 155.336 403.863 153 396.083 153H368.501V215.898H379.375L379.373 196.528L379.364 196.533V182.506L379.373 182.507L379.375 163.064H395.199C403.237 163.064 407.907 166.574 408.016 173.247L408.018 173.667L408.01 174.104C407.791 180.318 402.89 184.179 395.287 184.179L390.608 184.177L385.007 193.972L392.989 193.974L408.194 215.898H421.101L404.393 192.087L404.949 191.917C413.139 189.328 418.938 183.282 419.066 173.373L419.068 172.858C419.068 167.377 417.212 162.794 413.941 159.29Z" fill="url(#paint3_linear)"/>
<defs>
<linearGradient id="paint0_linear" x1="238.314" y1="104.274" x2="243.748" y2="174.165" gradientUnits="userSpaceOnUse">
<stop stop-color="#01E8F7"/>
<stop offset="1" stop-color="#00C2FF"/>
</linearGradient>
<linearGradient id="paint1_linear" x1="116.923" y1="55.5187" x2="190.528" y2="171.926" gradientUnits="userSpaceOnUse">
<stop stop-color="#01E8F7"/>
<stop offset="1" stop-color="#00B3EC"/>
</linearGradient>
<linearGradient id="paint2_linear" x1="144.133" y1="113.384" x2="150.717" y2="301.572" gradientUnits="userSpaceOnUse">
<stop stop-color="#01E8F7"/>
<stop offset="1" stop-color="#00C2FF"/>
</linearGradient>
<linearGradient id="paint3_linear" x1="249.881" y1="38.2181" x2="405.36" y2="195.235" gradientUnits="userSpaceOnUse">
<stop stop-color="#01E8F7"/>
<stop offset="1" stop-color="#00B3EC"/>
</linearGradient>
</defs>
</svg>
